<svg id="visual" viewBox="0 0 3840 1080" width="3840" height="1080" xmlns="http://www.w3.org/2000/svg" xmlns:xlink="http://www.w3.org/1999/xlink" version="1.1"><path d="M0 867L45.7 864.8C91.3 862.7 182.7 858.3 274.2 859.5C365.7 860.7 457.3 867.3 548.8 861.3C640.3 855.3 731.7 836.7 823 839.5C914.3 842.3 1005.7 866.7 1097 866.3C1188.3 866 1279.7 841 1371.2 826C1462.7 811 1554.3 806 1645.8 813.2C1737.3 820.3 1828.7 839.7 1920 853.2C2011.3 866.7 2102.7 874.3 2194.2 867.8C2285.7 861.3 2377.3 840.7 2468.8 828.5C2560.3 816.3 2651.7 812.7 2743 818.2C2834.3 823.7 2925.7 838.3 3017 847.2C3108.3 856 3199.7 859 3291.2 853.7C3382.7 848.3 3474.3 834.7 3565.8 831.7C3657.3 828.7 3748.7 836.3 3794.3 840.2L3840 844L3840 1081L3794.3 1081C3748.7 1081 3657.3 1081 3565.8 1081C3474.3 1081 3382.7 1081 3291.2 1081C3199.7 1081 3108.3 1081 3017 1081C2925.7 1081 2834.3 1081 2743 1081C2651.7 1081 2560.3 1081 2468.8 1081C2377.3 1081 2285.7 1081 2194.2 1081C2102.7 1081 2011.3 1081 1920 1081C1828.7 1081 1737.3 1081 1645.8 1081C1554.3 1081 1462.7 1081 1371.2 1081C1279.7 1081 1188.3 1081 1097 1081C1005.7 1081 914.3 1081 823 1081C731.7 1081 640.3 1081 548.8 1081C457.3 1081 365.7 1081 274.2 1081C182.7 1081 91.3 1081 45.7 1081L0 1081Z" fill="#0d007b"></path><path d="M0 899L45.7 889.8C91.3 880.7 182.7 862.3 274.2 863.3C365.7 864.3 457.3 884.7 548.8 886.2C640.3 887.7 731.7 870.3 823 865.7C914.3 861 1005.7 869 1097 871.3C1188.3 873.7 1279.7 870.3 1371.2 873.8C1462.7 877.3 1554.3 887.7 1645.8 893.5C1737.3 899.3 1828.7 900.7 1920 906.2C2011.3 911.7 2102.7 921.3 2194.2 919.8C2285.7 918.3 2377.3 905.7 2468.8 902.2C2560.3 898.7 2651.7 904.3 2743 901.2C2834.3 898 2925.7 886 3017 874.5C3108.3 863 3199.7 852 3291.2 861C3382.7 870 3474.3 899 3565.8 898.7C3657.3 898.3 3748.7 868.7 3794.3 853.8L3840 839L3840 1081L3794.3 1081C3748.7 1081 3657.3 1081 3565.8 1081C3474.3 1081 3382.7 1081 3291.2 1081C3199.7 1081 3108.3 1081 3017 1081C2925.7 1081 2834.3 1081 2743 1081C2651.7 1081 2560.3 1081 2468.8 1081C2377.3 1081 2285.7 1081 2194.2 1081C2102.7 1081 2011.3 1081 1920 1081C1828.7 1081 1737.3 1081 1645.8 1081C1554.3 1081 1462.7 1081 1371.2 1081C1279.7 1081 1188.3 1081 1097 1081C1005.7 1081 914.3 1081 823 1081C731.7 1081 640.3 1081 548.8 1081C457.3 1081 365.7 1081 274.2 1081C182.7 1081 91.3 1081 45.7 1081L0 1081Z" fill="#660079"></path><path d="M0 966L45.7 957.3C91.3 948.7 182.7 931.3 274.2 929.7C365.7 928 457.3 942 548.8 938C640.3 934 731.7 912 823 906.2C914.3 900.3 1005.7 910.7 1097 914.2C1188.3 917.7 1279.7 914.3 1371.2 921C1462.7 927.7 1554.3 944.3 1645.8 949.2C1737.3 954 1828.7 947 1920 938.3C2011.3 929.7 2102.7 919.3 2194.2 920.7C2285.7 922 2377.3 935 2468.8 934.5C2560.3 934 2651.7 920 2743 912.3C2834.3 904.7 2925.7 903.3 3017 912.5C3108.3 921.7 3199.7 941.3 3291.2 941.8C3382.7 942.3 3474.3 923.7 3565.8 917.8C3657.3 912 3748.7 919 3794.3 922.5L3840 926L3840 1081L3794.3 1081C3748.7 1081 3657.3 1081 3565.8 1081C3474.3 1081 3382.7 1081 3291.2 1081C3199.7 1081 3108.3 1081 3017 1081C2925.7 1081 2834.3 1081 2743 1081C2651.7 1081 2560.3 1081 2468.8 1081C2377.3 1081 2285.7 1081 2194.2 1081C2102.7 1081 2011.3 1081 1920 1081C1828.7 1081 1737.3 1081 1645.8 1081C1554.3 1081 1462.7 1081 1371.2 1081C1279.7 1081 1188.3 1081 1097 1081C1005.7 1081 914.3 1081 823 1081C731.7 1081 640.3 1081 548.8 1081C457.3 1081 365.7 1081 274.2 1081C182.7 1081 91.3 1081 45.7 1081L0 1081Z" fill="#970073"></path><path d="M0 934L45.7 934.3C91.3 934.7 182.7 935.3 274.2 945.7C365.7 956 457.3 976 548.8 985.8C640.3 995.7 731.7 995.3 823 984.3C914.3 973.3 1005.7 951.7 1097 950.2C1188.3 948.7 1279.7 967.3 1371.2 974.5C1462.7 981.7 1554.3 977.3 1645.8 971C1737.3 964.7 1828.7 956.3 1920 950.5C2011.3 944.7 2102.7 941.3 2194.2 945.3C2285.7 949.3 2377.3 960.7 2468.8 964.5C2560.3 968.3 2651.7 964.7 2743 963.7C2834.3 962.7 2925.7 964.3 3017 959.7C3108.3 955 3199.7 944 3291.2 943.7C3382.7 943.3 3474.3 953.7 3565.8 960.3C3657.3 967 3748.7 970 3794.3 971.5L3840 973L3840 1081L3794.3 1081C3748.7 1081 3657.3 1081 3565.8 1081C3474.3 1081 3382.7 1081 3291.2 1081C3199.7 1081 3108.3 1081 3017 1081C2925.7 1081 2834.3 1081 2743 1081C2651.7 1081 2560.3 1081 2468.8 1081C2377.3 1081 2285.7 1081 2194.2 1081C2102.7 1081 2011.3 1081 1920 1081C1828.7 1081 1737.3 1081 1645.8 1081C1554.3 1081 1462.7 1081 1371.2 1081C1279.7 1081 1188.3 1081 1097 1081C1005.7 1081 914.3 1081 823 1081C731.7 1081 640.3 1081 548.8 1081C457.3 1081 365.7 1081 274.2 1081C182.7 1081 91.3 1081 45.7 1081L0 1081Z" fill="#bd036c"></path><path d="M0 978L45.7 979.7C91.3 981.3 182.7 984.7 274.2 984.5C365.7 984.3 457.3 980.7 548.8 984.8C640.3 989 731.7 1001 823 1001.7C914.3 1002.3 1005.7 991.7 1097 994C1188.3 996.3 1279.7 1011.7 1371.2 1009.3C1462.7 1007 1554.3 987 1645.8 977C1737.3 967 1828.7 967 1920 968.8C2011.3 970.7 2102.7 974.3 2194.2 979.2C2285.7 984 2377.3 990 2468.8 989C2560.3 988 2651.7 980 2743 976.2C2834.3 972.3 2925.7 972.7 3017 977.7C3108.3 982.7 3199.7 992.3 3291.2 993.2C3382.7 994 3474.3 986 3565.8 984.7C3657.3 983.3 3748.7 988.7 3794.3 991.3L3840 994L3840 1081L3794.3 1081C3748.7 1081 3657.3 1081 3565.8 1081C3474.3 1081 3382.7 1081 3291.2 1081C3199.7 1081 3108.3 1081 3017 1081C2925.7 1081 2834.3 1081 2743 1081C2651.7 1081 2560.3 1081 2468.8 1081C2377.3 1081 2285.7 1081 2194.2 1081C2102.7 1081 2011.3 1081 1920 1081C1828.7 1081 1737.3 1081 1645.8 1081C1554.3 1081 1462.7 1081 1371.2 1081C1279.7 1081 1188.3 1081 1097 1081C1005.7 1081 914.3 1081 823 1081C731.7 1081 640.3 1081 548.8 1081C457.3 1081 365.7 1081 274.2 1081C182.7 1081 91.3 1081 45.7 1081L0 1081Z" fill="#dd1f61"></path><path d="M0 1047L45.7 1046.8C91.3 1046.7 182.7 1046.3 274.2 1044C365.7 1041.7 457.3 1037.3 548.8 1030.8C640.3 1024.3 731.7 1015.7 823 1012.2C914.3 1008.7 1005.7 1010.3 1097 1010.5C1188.3 1010.7 1279.7 1009.3 1371.2 1010.3C1462.7 1011.3 1554.3 1014.7 1645.8 1018.5C1737.3 1022.3 1828.7 1026.7 1920 1028.5C2011.3 1030.3 2102.7 1029.7 2194.2 1030.8C2285.7 1032 2377.3 1035 2468.8 1038.3C2560.3 1041.7 2651.7 1045.3 2743 1047.2C2834.3 1049 2925.7 1049 3017 1042.2C3108.3 1035.3 3199.7 1021.7 3291.2 1018C3382.7 1014.3 3474.3 1020.7 3565.8 1025.2C3657.3 1029.7 3748.7 1032.3 3794.3 1033.7L3840 1035L3840 1081L3794.3 1081C3748.7 1081 3657.3 1081 3565.8 1081C3474.3 1081 3382.7 1081 3291.2 1081C3199.7 1081 3108.3 1081 3017 1081C2925.7 1081 2834.3 1081 2743 1081C2651.7 1081 2560.3 1081 2468.8 1081C2377.3 1081 2285.7 1081 2194.2 1081C2102.7 1081 2011.3 1081 1920 1081C1828.7 1081 1737.3 1081 1645.8 1081C1554.3 1081 1462.7 1081 1371.2 1081C1279.7 1081 1188.3 1081 1097 1081C1005.7 1081 914.3 1081 823 1081C731.7 1081 640.3 1081 548.8 1081C457.3 1081 365.7 1081 274.2 1081C182.7 1081 91.3 1081 45.7 1081L0 1081Z" fill="#f73f52"></path></svg>