<svg id="erSUybKt7Cn1" xmlns="http://www.w3.org/2000/svg" xmlns:xlink="http://www.w3.org/1999/xlink" viewBox="0 0 640 640" shape-rendering="geometricPrecision" text-rendering="geometricPrecision" style="background-color:#fff">
<style><![CDATA[
#erSUybKt7Cn2_tr {animation: erSUybKt7Cn2_tr__tr 3000ms linear 1 normal forwards}@keyframes erSUybKt7Cn2_tr__tr { 0% {transform: translate(328.735367px,284.12793px) rotate(-11375deg)} 33.333333% {transform: translate(328.735367px,284.12793px) rotate(-11375deg)} 100% {transform: translate(328.735367px,284.12793px) rotate(-11510deg)}} #erSUybKt7Cn2_ts {animation: erSUybKt7Cn2_ts__ts 3000ms linear 1 normal forwards}@keyframes erSUybKt7Cn2_ts__ts { 0% {transform: scale(0,0)} 33.333333% {transform: scale(0,0);animation-timing-function: cubic-bezier(0,0,0.58,1)} 46.666667% {transform: scale(1,1)} 100% {transform: scale(1,1)}} #erSUybKt7Cn16 {animation: erSUybKt7Cn16_c_o 3000ms linear 1 normal forwards}@keyframes erSUybKt7Cn16_c_o { 0% {opacity: 0} 40% {opacity: 0} 46.666667% {opacity: 1} 100% {opacity: 1}}
]]></style>
<g id="erSUybKt7Cn2_tr" transform="translate(328.735367,284.12793) rotate(-11375)"><g id="erSUybKt7Cn2_ts" transform="scale(0,0)"><g transform="translate(-328.735367,-284.12793)"><path d="M328.73537,464.12793c-99.41125,0-180-80.58875-180-180s80.58875-180,180-180s180,80.58875,180,180-80.58875,180-180,180Z" fill="#d93849" stroke-width="0"/><path d="M350.708523,460.052521c-93.369633-76.61098-84.990307-275.320711,78.190282-327.750945c61.78748,32.184799,89.756642,122.609988,80.434668,178.453911-20.902265,125.216443-128.698786,152.888174-158.62495,149.297034Z" transform="translate(-3.07457 0.069206)" fill="#f73f52" stroke="rgba(63,87,135,0)" stroke-width="1.28"/><path d="M329.51505,277.84847c10.861547-6.461859,29.22064-14.04899,47.41535-14.04899" transform="translate(-.843599 0)" fill="#ac3d48" stroke="rgba(63,87,135,0)" stroke-width="1.28" stroke-linecap="round" stroke-linejoin="round" stroke-dashoffset="49.929272" stroke-dasharray="49.929272"/><path d="M231.818441,299.903157c15.965837,20.601081,184.038786,24.854112,213.627016,13.01882" transform="translate(12.413501 10.740717)" fill="#ac3d48" stroke="rgba(63,87,135,0)" stroke-width="1.28"/><path d="M399.76001,266.43366c3.06414-1.53207,6.29939-2.84039,9.65868-3.51225" fill="#ac3d48" stroke="rgba(63,87,135,0)" stroke-width="1.28"/><path d="M475.780676,178.69218c-15.47779,0-44.914106,9.75219-57.581376,19.25264" fill="#ac3d48" stroke="rgba(63,87,135,0)" stroke-width="1.28"/><path d="M255.562043,447.047866c14.48096-10.86072,28.104047-10.480066,43.580867-18.218476c13.38347-6.69174,22.18165-21.54737,36.21344-27.16008" fill="#ac3d48" stroke="rgba(63,87,135,0)" stroke-width="1.28"/><path d="M166.60974,206.16523c16.98757,16.98757,51.33352,15.85967,73.28031,11.86935c4.65429-.84624,11.3949-1.33232,15.48176-3.78443" transform="translate(0 0.000001)" fill="#ac3d48" stroke="rgba(63,87,135,0)" stroke-width="1.28"/><ellipse rx="9.105692" ry="9.105692" transform="translate(193.313227 272.399581)" fill="#ac3d48" stroke="rgba(63,87,135,0)"/><ellipse rx="8.945944" ry="8.945944" transform="matrix(.52887 0 0 0.538443 279.851973 161.681804)" fill="#ac3d48" stroke="rgba(63,87,135,0)"/><ellipse rx="8.945944" ry="8.945944" transform="translate(241.717172 180.224413)" fill="#ac3d48" stroke="rgba(63,87,135,0)"/><ellipse rx="4.933481" ry="4.440133" transform="translate(437.59055 243.432114)" fill="#ac3d48" stroke="rgba(63,87,135,0)"/><ellipse rx="6.413526" ry="6.906874" transform="matrix(.721057 0 0 0.647428 457.195711 259.986758)" fill="#ac3d48" stroke="rgba(63,87,135,0)"/></g></g></g><path id="erSUybKt7Cn16" d="M252.636284,313.258026l71.057821,107.948227l132.85184-212.742472" transform="translate(-13.464713-21.524899)" opacity="0" fill="none" stroke="#f8f8f8" stroke-width="41" stroke-linecap="round" stroke-linejoin="round" stroke-dashoffset="380" stroke-dasharray="380.052956"/></svg>
